<svg width="25" height="25" viewBox="0 0 25 25" fill="none" xmlns="http://www.w3.org/2000/svg">
<path d="M12.4902 1.86279C6.45264 1.86035 1.5625 6.74805 1.5625 12.7808C1.5625 17.5513 4.62158 21.6064 8.88184 23.0957C9.45557 23.2397 9.36768 22.832 9.36768 22.5537V20.6616C6.05469 21.0498 5.92041 18.8574 5.69824 18.4912C5.24902 17.7246 4.18701 17.5293 4.50439 17.1631C5.25879 16.7749 6.02783 17.2607 6.91895 18.5767C7.56348 19.5313 8.8208 19.3701 9.45801 19.2114C9.59717 18.6377 9.89502 18.125 10.3052 17.7271C6.87256 17.1118 5.44189 15.0171 5.44189 12.5269C5.44189 11.3184 5.83984 10.2075 6.62109 9.31152C6.12305 7.83447 6.66748 6.56982 6.74072 6.38184C8.15918 6.25488 9.63379 7.39746 9.74853 7.48779C10.5542 7.27051 11.4746 7.15576 12.5049 7.15576C13.54 7.15576 14.4629 7.27539 15.2759 7.49512C15.5518 7.28516 16.9189 6.30371 18.2373 6.42334C18.3081 6.61133 18.8403 7.84668 18.3716 9.3042C19.1626 10.2026 19.5654 11.3232 19.5654 12.5342C19.5654 15.0293 18.125 17.1265 14.6826 17.7319C14.9775 18.0219 15.2116 18.3677 15.3713 18.7492C15.531 19.1306 15.6131 19.5401 15.6128 19.9536V22.7002C15.6323 22.9199 15.6128 23.1372 15.979 23.1372C20.3027 21.6797 23.4155 17.5952 23.4155 12.7832C23.4155 6.74805 18.5229 1.86279 12.4902 1.86279V1.86279Z" fill="#FF8D8D"/>
</svg>
